Coordinates
version=1
nRows=8
nColumns=40
inDegrees=yes

Units are S.I. units (second, meters, Newtons, ...)
Angles are in degrees.

endheader
time	pelvis_tilt	pelvis_list	pelvis_rotation	pelvis_tx	pelvis_ty	pelvis_tz	hip_flexion_r	hip_adduction_r	hip_rotation_r	knee_angle_r	knee_angle_r_beta	ankle_angle_r	subtalar_angle_r	mtp_angle_r	hip_flexion_l	hip_adduction_l	hip_rotation_l	knee_angle_l	knee_angle_l_beta	ankle_angle_l	subtalar_angle_l	mtp_angle_l	lumbar_extension	lumbar_bending	lumbar_rotation	arm_flex_r	arm_add_r	arm_rot_r	elbow_flex_r	pro_sup_r	wrist_flex_r	wrist_dev_r	arm_flex_l	arm_add_l	arm_rot_l	elbow_flex_l	pro_sup_l	wrist_flex_l	wrist_dev_l
      2.08000000	      1.84474167	     -6.30064963	      7.25372174	      0.20727586	      0.90010652	      1.43340406	     10.46081683	      7.44692076	    -21.24392477	    -19.66881925	     -0.34328566	      4.54820227	      1.39846740	     -3.10776188	      7.48145401	     12.64620031	      7.31945491	    -57.13906022	     -0.99726473	     -4.47993653	      6.28139246	     -8.43412187	     -7.91096350	     10.14437971	     -2.96183221	      7.87624592	    -10.85235306	     19.80292905	     14.02431770	     89.95437384	      0.00000000	      0.00000000	      8.39549290	      7.46958479	    -13.80527500	     19.21270763	     89.95437384	      0.00000000	      0.00000000
      2.09000000	      2.00188224	     -6.05323611	      7.15845313	      0.21412021	      0.90074482	      1.43420762	      9.75043953	      7.34965691	    -21.11261619	    -19.65169380	     -0.34298676	      4.80557389	      1.40277695	     -3.10670011	      8.34167029	     12.35588467	      7.23700994	    -57.57727121	     -1.00491296	     -3.85323767	      5.88438670	     -8.57895568	     -8.10334763	      9.79533617	     -2.61160735	      8.25758947	    -10.94376662	     19.90864319	     14.01224538	     89.95437384	      0.00000000	      0.00000000	      7.98369981	      7.43694375	    -13.91569184	     18.89440326	     89.95437384	      0.00000000	      0.00000000
      2.10000000	      2.17974575	     -5.87194426	      7.16186177	      0.22106232	      0.90145768	      1.43486482	      8.96541331	      7.36485157	    -20.75394649	    -19.55610602	     -0.34131844	      5.31881565	      1.50138081	     -3.14139548	      9.09389938	     12.02340135	      6.91019323	    -57.67280233	     -1.00658029	     -2.77827397	      5.16743345	     -8.92757654	     -8.23978532	      9.54373534	     -2.40520034	      8.68408706	    -11.00813945	     20.07858910	     13.86736494	     89.95437384	      0.00000000	      0.00000000	      7.54806761	      7.43312782	    -14.12009542	     18.51367341	     89.95437384	      0.00000000	      0.00000000
      2.11000000	      2.39127931	     -5.64632235	      7.08207854	      0.22807564	      0.90222120	      1.43562332	      8.13886051	      7.33939265	    -20.41983948	    -19.45158690	     -0.33949424	      5.75604117	      1.49789452	     -3.13818619	      9.75614209	     11.62166312	      6.66438268	    -57.59288528	     -1.00518547	     -1.80493815	      4.37348333	     -9.34368989	     -8.43222604	      9.22460439	     -2.06578977	      9.03337203	    -11.11638768	     20.18935053	     13.87424313	     89.95437384	      0.00000000	      0.00000000	      7.03648856	      7.48142071	    -14.32915621	     18.40501476	     89.95437384	      0.00000000	      0.00000000
      2.12000000	      2.45031509	     -5.58109023	      6.79549594	      0.23472666	      0.90281448	      1.43692007	      7.49592681	      7.37972452	    -20.63571136	    -19.28356766	     -0.33656175	      5.86178438	      2.02550099	     -3.18207874	     10.56476271	     11.51487554	      6.76308332	    -57.36040077	     -1.00112785	     -0.95737517	      3.55484440	     -9.90525797	     -8.51828463	      9.02492607	     -1.55100400	      9.41431482	    -11.21608637	     20.24955898	     13.92194668	     89.95437384	      0.00000000	      0.00000000	      6.54496297	      7.53936832	    -14.58033242	     18.29859717	     89.95437384	      0.00000000	      0.00000000
      2.13000000	      2.48721462	     -5.38849973	      6.65461735	      0.24131748	      0.90330599	      1.43774404	      6.92288758	      7.29926055	    -20.54025681	    -19.24521270	     -0.33589233	      6.13107514	      2.22255165	     -3.21354807	     11.40884952	     11.10827732	      6.61096999	    -56.95684213	     -0.99408443	     -0.11010516	      3.14964466	    -10.14236860	     -8.53896746	      8.72102283	     -1.24000087	      9.81117957	    -11.30892830	     20.22206187	     13.95479575	     89.95437384	      0.00000000	      0.00000000	      6.06268480	      7.58716080	    -14.68819879	     18.13964681	     89.95437384	      0.00000000	      0.00000000
      2.14000000	      2.60854803	     -5.15986950	      6.55435584	      0.24827064	      0.90379201	      1.43835557	      6.26252470	      7.21507713	    -20.22581994	    -19.26050946	     -0.33615931	      6.52213490	      2.24228795	     -3.23229444	     12.07477114	     10.62470864	      6.43468587	    -56.35309062	     -0.98354698	      0.78501517	      2.84878035	    -10.33541908	     -8.59860280	      8.39773673	     -0.95691260	     10.13837777	    -11.39309293	     20.17069553	     14.01948138	     89.95437384	      0.00000000	      0.00000000	      5.52513532	      7.63440884	    -14.73931219	     18.09268596	     89.95437384	      0.00000000	      0.00000000
      2.15000000	      2.78532379	     -4.91973810	      6.37245133	      0.25486812	      0.90440582	      1.43908075	      5.52451950	      7.12523890	    -19.91205144	    -19.19848177	     -0.33507672	      6.87975199	      2.27304260	     -3.25034146	     12.61685489	     10.13122554	      6.33876662	    -55.57989607	     -0.97005218	      1.86847088	      2.65565096	    -10.58976825	     -8.80869401	      8.05741382	     -0.60399011	     10.52626965	    -11.48339698	     20.09273320	     14.15413870	     89.95437384	      0.00000000	      0.00000000	      5.01895120	      7.70309321	    -14.92748434	     18.03228041	     89.95437384	      0.00000000	      0.00000000
